<?xml version="1.0" encoding="utf-8"?>
<!-- Generator: Adobe Illustrator 16.0.0, SVG Export Plug-In . SVG Version: 6.00 Build 0)  -->
<!DOCTYPE svg PUBLIC "-//W3C//DTD SVG 1.1//EN" "http://www.w3.org/Graphics/SVG/1.1/DTD/svg11.dtd">
<svg version="1.1" id="Layer_1" xmlns="http://www.w3.org/2000/svg" xmlns:xlink="http://www.w3.org/1999/xlink" x="0px" y="0px"
	 width="490.993px" height="130px" viewBox="0 0 490.993 130" enable-background="new 0 0 490.993 130" xml:space="preserve">
<g>
	<g>
		<g>
			<path fill="#FFFFFF" d="M119.884,117.817v-11.433h3.88c1.469,0,2.427,0.058,2.872,0.174c0.685,0.17,1.26,0.544,1.723,1.118
				s0.692,1.314,0.692,2.227c0,0.702-0.132,1.291-0.399,1.77c-0.267,0.478-0.604,0.854-1.018,1.128
				c-0.41,0.271-0.828,0.452-1.253,0.541c-0.577,0.109-1.411,0.163-2.506,0.163H122.3v4.312H119.884z M122.3,108.319v3.245h1.325
				c0.95,0,1.587-0.06,1.906-0.18c0.324-0.12,0.574-0.307,0.758-0.561c0.183-0.257,0.271-0.552,0.271-0.89
				c0-0.418-0.125-0.761-0.382-1.031c-0.257-0.27-0.579-0.438-0.972-0.507c-0.289-0.051-0.871-0.077-1.738-0.077H122.3z"/>
			<path fill="#FFFFFF" d="M141.827,117.817h-2.63l-1.045-2.597h-4.782l-0.988,2.597h-2.563l4.662-11.433h2.553L141.827,117.817z
				 M137.378,113.295l-1.649-4.242l-1.616,4.242H137.378z"/>
			<path fill="#FFFFFF" d="M143.115,117.817v-11.433h5.088c1.276,0,2.208,0.104,2.787,0.31c0.578,0.205,1.042,0.57,1.391,1.095
				c0.348,0.524,0.522,1.128,0.522,1.801c0,0.857-0.263,1.566-0.792,2.124c-0.525,0.561-1.318,0.911-2.367,1.061
				c0.523,0.288,0.955,0.608,1.294,0.957c0.341,0.348,0.799,0.966,1.375,1.857l1.464,2.229h-2.892l-1.746-2.488
				c-0.62-0.888-1.046-1.449-1.275-1.68c-0.227-0.23-0.469-0.391-0.725-0.474c-0.258-0.09-0.66-0.13-1.216-0.13h-0.489v4.771
				H143.115z M145.534,111.221h1.786c1.159,0,1.884-0.046,2.172-0.141c0.289-0.092,0.514-0.254,0.676-0.482
				c0.163-0.231,0.248-0.518,0.248-0.858c0-0.386-0.107-0.693-0.324-0.931c-0.217-0.239-0.519-0.389-0.911-0.45
				c-0.196-0.027-0.782-0.039-1.763-0.039h-1.884V111.221z"/>
			<path fill="#FFFFFF" d="M165.973,117.817h-2.628l-1.046-2.597h-4.782l-0.987,2.597h-2.562l4.661-11.433h2.552L165.973,117.817z
				 M161.523,113.295l-1.648-4.242l-1.614,4.242H161.523z"/>
		</g>
		<g>
			<path fill="#FFFFFF" d="M169.558,117.816v-11.335h2.417v9.409h6.007v1.926H169.558z"/>
			<path fill="#FFFFFF" d="M190.496,117.816h-2.628l-1.045-2.595h-4.785l-0.986,2.595h-2.564l4.662-11.43h2.555L190.496,117.816z
				 M186.048,113.296l-1.648-4.243l-1.617,4.243H186.048z"/>
			<path fill="#FFFFFF" d="M196.349,117.816v-11.43h2.416v11.43H196.349z"/>
			<path fill="#FFFFFF" d="M201.092,117.816v-11.43h2.351l4.898,7.633v-7.633h2.244v11.43h-2.424l-4.824-7.453v7.453H201.092z"/>
			<path fill="#FFFFFF" d="M213.133,106.387h4.415c0.997,0,1.756,0.072,2.277,0.218c0.703,0.196,1.305,0.548,1.805,1.054
				c0.5,0.505,0.882,1.12,1.144,1.852c0.261,0.731,0.392,1.632,0.392,2.701c0,0.942-0.123,1.751-0.367,2.432
				c-0.3,0.833-0.727,1.506-1.281,2.021c-0.42,0.391-0.985,0.694-1.699,0.912c-0.533,0.161-1.246,0.24-2.139,0.24h-4.546V106.387z
				 M215.548,108.318v7.572h1.805c0.675,0,1.162-0.034,1.462-0.108c0.391-0.095,0.716-0.251,0.974-0.475
				c0.259-0.225,0.471-0.59,0.635-1.104c0.162-0.512,0.244-1.21,0.244-2.095c0-0.884-0.082-1.562-0.244-2.034
				c-0.164-0.474-0.393-0.842-0.688-1.107c-0.293-0.265-0.666-0.446-1.117-0.539c-0.338-0.073-0.999-0.11-1.984-0.11H215.548z"/>
			<path fill="#FFFFFF" d="M225.198,106.387h2.415v6.191c0,0.981,0.03,1.621,0.089,1.911c0.104,0.468,0.352,0.844,0.74,1.125
				c0.389,0.284,0.922,0.428,1.596,0.428c0.687,0,1.203-0.135,1.551-0.402c0.348-0.267,0.559-0.597,0.629-0.986
				c0.07-0.391,0.105-1.039,0.105-1.944v-6.322h2.417v6.004c0,1.373-0.065,2.342-0.196,2.907c-0.13,0.567-0.371,1.046-0.723,1.436
				c-0.351,0.39-0.82,0.702-1.407,0.933c-0.589,0.231-1.356,0.348-2.303,0.348c-1.142,0-2.009-0.127-2.6-0.378
				c-0.591-0.252-1.058-0.578-1.4-0.983c-0.343-0.404-0.569-0.826-0.677-1.266c-0.158-0.656-0.236-1.623-0.236-2.902V106.387z"/>
			<path fill="#FFFFFF" d="M236.675,114.099l2.351-0.219c0.142,0.754,0.429,1.308,0.86,1.662c0.434,0.353,1.018,0.529,1.752,0.529
				c0.778,0,1.365-0.157,1.76-0.472c0.395-0.315,0.592-0.683,0.592-1.104c0-0.271-0.084-0.498-0.25-0.689
				c-0.166-0.19-0.455-0.356-0.868-0.494c-0.283-0.096-0.929-0.262-1.935-0.501c-1.296-0.308-2.205-0.683-2.728-1.13
				c-0.734-0.632-1.103-1.396-1.103-2.302c0-0.58,0.174-1.128,0.519-1.634c0.347-0.507,0.845-0.893,1.495-1.158
				c0.648-0.265,1.436-0.396,2.354-0.396c1.502,0,2.632,0.313,3.392,0.942c0.76,0.628,1.158,1.469,1.195,2.518l-2.416,0.103
				c-0.103-0.587-0.325-1.009-0.665-1.269c-0.341-0.254-0.85-0.384-1.53-0.384c-0.702,0-1.252,0.136-1.648,0.413
				c-0.257,0.174-0.384,0.413-0.384,0.709c0,0.271,0.12,0.503,0.358,0.694c0.305,0.243,1.045,0.499,2.221,0.763
				c1.176,0.265,2.045,0.54,2.607,0.823c0.564,0.284,1.004,0.671,1.323,1.161c0.317,0.493,0.478,1.1,0.478,1.823
				c0,0.655-0.19,1.267-0.571,1.841c-0.381,0.569-0.919,0.996-1.617,1.273c-0.696,0.279-1.563,0.418-2.604,0.418
				c-1.512,0-2.674-0.336-3.484-1.002C237.315,116.352,236.833,115.378,236.675,114.099z"/>
			<path fill="#FFFFFF" d="M251.132,117.816v-9.498h-3.551v-1.932h9.51v1.932h-3.543v9.498H251.132z"/>
			<path fill="#FFFFFF" d="M258.658,117.816v-11.43h5.085c1.28,0,2.208,0.103,2.788,0.306c0.579,0.207,1.043,0.572,1.392,1.097
				c0.349,0.525,0.522,1.126,0.522,1.802c0,0.858-0.265,1.565-0.791,2.125c-0.529,0.56-1.317,0.911-2.367,1.056
				c0.522,0.291,0.953,0.611,1.294,0.959c0.34,0.35,0.798,0.969,1.374,1.855l1.461,2.23h-2.89l-1.745-2.485
				c-0.622-0.89-1.046-1.449-1.274-1.682c-0.228-0.231-0.471-0.391-0.726-0.474c-0.257-0.088-0.662-0.13-1.217-0.13h-0.49v4.771
				H258.658z M261.074,111.222h1.788c1.159,0,1.883-0.049,2.171-0.141c0.289-0.096,0.515-0.257,0.677-0.483
				c0.164-0.229,0.247-0.515,0.247-0.859c0-0.383-0.108-0.694-0.323-0.93c-0.215-0.237-0.519-0.388-0.911-0.45
				c-0.196-0.025-0.783-0.04-1.763-0.04h-1.886V111.222z"/>
			<path fill="#FFFFFF" d="M270.648,117.816v-11.43h2.418v11.43H270.648z"/>
			<path fill="#FFFFFF" d="M286.159,117.816h-2.628l-1.045-2.595h-4.783l-0.988,2.595h-2.562l4.662-11.43h2.553L286.159,117.816z
				 M281.71,113.296l-1.648-4.243l-1.616,4.243H281.71z"/>
			<path fill="#FFFFFF" d="M291.077,106.387h4.419c0.993,0,1.752,0.072,2.276,0.218c0.702,0.196,1.304,0.548,1.805,1.054
				c0.5,0.505,0.882,1.12,1.142,1.852c0.262,0.731,0.393,1.632,0.393,2.701c0,0.942-0.122,1.751-0.367,2.432
				c-0.301,0.833-0.728,1.506-1.282,2.021c-0.422,0.391-0.985,0.694-1.698,0.912c-0.533,0.161-1.246,0.24-2.14,0.24h-4.547V106.387z
				 M293.495,108.318v7.572h1.804c0.673,0,1.16-0.034,1.462-0.108c0.393-0.095,0.715-0.251,0.975-0.475
				c0.259-0.225,0.469-0.59,0.633-1.104c0.163-0.512,0.245-1.21,0.245-2.095c0-0.884-0.082-1.562-0.245-2.034
				c-0.164-0.474-0.393-0.842-0.686-1.107c-0.294-0.265-0.667-0.446-1.118-0.539c-0.338-0.073-0.999-0.11-1.984-0.11H293.495z"/>
			<path fill="#FFFFFF" d="M303.159,117.816v-11.43h8.875v1.932h-6.458v2.535h6.007v1.927h-6.007v3.11h6.686v1.926H303.159z"/>
			<path fill="#FFFFFF" d="M319.021,117.816v-11.335h2.416v9.409h6.008v1.926H319.021z"/>
			<path fill="#FFFFFF" d="M339.959,117.816h-2.629l-1.043-2.595h-4.786l-0.987,2.595h-2.563l4.662-11.43h2.554L339.959,117.816z
				 M335.512,113.296l-1.65-4.243l-1.615,4.243H335.512z"/>
			<path fill="#FFFFFF" d="M351.543,113.614l2.342,0.711c-0.358,1.248-0.955,2.175-1.79,2.78c-0.836,0.605-1.896,0.908-3.181,0.908
				c-1.588,0-2.894-0.518-3.918-1.557c-1.021-1.037-1.534-2.455-1.534-4.253c0-1.903,0.515-3.381,1.54-4.435
				c1.033-1.051,2.383-1.577,4.059-1.577c1.464,0,2.653,0.412,3.567,1.239c0.546,0.488,0.952,1.189,1.227,2.104l-2.395,0.547
				c-0.141-0.595-0.437-1.061-0.886-1.403c-0.446-0.345-0.994-0.515-1.635-0.515c-0.887,0-1.607,0.304-2.161,0.911
				c-0.552,0.609-0.828,1.594-0.828,2.954c0,1.448,0.272,2.477,0.816,3.09c0.547,0.614,1.251,0.922,2.124,0.922
				c0.641,0,1.194-0.196,1.657-0.588C351.009,115.064,351.341,114.451,351.543,113.614z"/>
			<path fill="#FFFFFF" d="M355.469,112.171c0-1.165,0.185-2.141,0.549-2.931c0.271-0.583,0.641-1.106,1.113-1.567
				c0.472-0.462,0.986-0.805,1.547-1.028c0.745-0.303,1.605-0.452,2.579-0.452c1.764,0,3.175,0.522,4.234,1.565
				c1.059,1.046,1.586,2.5,1.586,4.359c0,1.845-0.525,3.289-1.575,4.333c-1.051,1.043-2.455,1.563-4.212,1.563
				c-1.78,0-3.194-0.518-4.246-1.557C355.994,115.42,355.469,113.992,355.469,112.171z M357.959,112.094
				c0,1.294,0.313,2.276,0.938,2.944c0.628,0.67,1.421,1.004,2.387,1.004c0.961,0,1.752-0.332,2.368-0.994
				c0.618-0.666,0.928-1.66,0.928-2.985c0-1.31-0.301-2.288-0.903-2.932c-0.601-0.646-1.4-0.966-2.393-0.966
				c-0.998,0-1.802,0.323-2.41,0.978C358.265,109.795,357.959,110.778,357.959,112.094z"/>
			<path fill="#FFFFFF" d="M368.988,117.816v-11.43h2.352l4.897,7.633v-7.633h2.245v11.43h-2.425l-4.824-7.453v7.453H368.988z"/>
			<path fill="#FFFFFF" d="M380.424,114.099l2.352-0.219c0.142,0.754,0.428,1.308,0.86,1.662c0.435,0.353,1.015,0.529,1.752,0.529
				c0.777,0,1.363-0.157,1.76-0.472c0.393-0.315,0.591-0.683,0.591-1.104c0-0.271-0.084-0.498-0.25-0.689
				c-0.165-0.19-0.457-0.356-0.868-0.494c-0.285-0.096-0.93-0.262-1.935-0.501c-1.296-0.308-2.205-0.683-2.727-1.13
				c-0.736-0.632-1.104-1.396-1.104-2.302c0-0.58,0.174-1.128,0.521-1.634c0.346-0.507,0.841-0.893,1.493-1.158
				c0.65-0.265,1.434-0.396,2.354-0.396c1.502,0,2.631,0.313,3.393,0.942c0.76,0.628,1.156,1.469,1.196,2.518l-2.419,0.103
				c-0.104-0.587-0.324-1.009-0.663-1.269c-0.341-0.254-0.849-0.384-1.529-0.384c-0.704,0-1.254,0.136-1.649,0.413
				c-0.258,0.174-0.384,0.413-0.384,0.709c0,0.271,0.119,0.503,0.357,0.694c0.304,0.243,1.045,0.499,2.222,0.763
				c1.175,0.265,2.044,0.54,2.607,0.823c0.562,0.284,1.004,0.671,1.322,1.161c0.317,0.493,0.478,1.1,0.478,1.823
				c0,0.655-0.189,1.267-0.571,1.841c-0.382,0.569-0.919,0.996-1.616,1.273c-0.695,0.279-1.564,0.418-2.606,0.418
				c-1.51,0-2.673-0.336-3.484-1.002C381.065,116.352,380.581,115.378,380.424,114.099z"/>
			<path fill="#FFFFFF" d="M394.882,117.816v-9.498h-3.551v-1.932h9.508v1.932h-3.542v9.498H394.882z"/>
			<path fill="#FFFFFF" d="M402.406,117.816v-11.43h5.086c1.277,0,2.208,0.103,2.786,0.306c0.583,0.207,1.046,0.572,1.395,1.097
				c0.347,0.525,0.522,1.126,0.522,1.802c0,0.858-0.263,1.565-0.792,2.125c-0.528,0.56-1.318,0.911-2.368,1.056
				c0.522,0.291,0.952,0.611,1.294,0.959c0.34,0.35,0.798,0.969,1.376,1.855l1.459,2.23h-2.888l-1.745-2.485
				c-0.621-0.89-1.046-1.449-1.276-1.682c-0.226-0.231-0.469-0.391-0.725-0.474c-0.255-0.088-0.663-0.13-1.219-0.13h-0.488v4.771
				H402.406z M404.823,111.222h1.788c1.16,0,1.882-0.049,2.17-0.141c0.288-0.096,0.516-0.257,0.68-0.483
				c0.164-0.229,0.244-0.515,0.244-0.859c0-0.383-0.107-0.694-0.323-0.93c-0.215-0.237-0.519-0.388-0.908-0.45
				c-0.197-0.025-0.785-0.04-1.767-0.04h-1.884V111.222z"/>
			<path fill="#FFFFFF" d="M414.455,106.387h2.419v6.191c0,0.981,0.027,1.621,0.088,1.911c0.104,0.468,0.35,0.844,0.739,1.125
				c0.388,0.284,0.92,0.428,1.598,0.428c0.685,0,1.201-0.135,1.548-0.402c0.351-0.267,0.558-0.597,0.63-0.986
				c0.071-0.391,0.105-1.039,0.105-1.944v-6.322h2.417v6.004c0,1.373-0.064,2.342-0.197,2.907c-0.13,0.567-0.369,1.046-0.723,1.436
				c-0.351,0.39-0.818,0.702-1.407,0.933c-0.588,0.231-1.354,0.348-2.302,0.348c-1.143,0-2.01-0.127-2.601-0.378
				c-0.59-0.252-1.058-0.578-1.401-0.983c-0.342-0.404-0.565-0.826-0.677-1.266c-0.158-0.656-0.236-1.623-0.236-2.902V106.387z"/>
			<path fill="#FFFFFF" d="M434.201,113.614l2.345,0.711c-0.358,1.248-0.958,2.175-1.793,2.78s-1.896,0.908-3.179,0.908
				c-1.59,0-2.896-0.518-3.919-1.557c-1.023-1.037-1.534-2.455-1.534-4.253c0-1.903,0.513-3.381,1.543-4.435
				c1.028-1.051,2.381-1.577,4.059-1.577c1.462,0,2.651,0.412,3.566,1.239c0.544,0.488,0.95,1.189,1.223,2.104l-2.391,0.547
				c-0.143-0.595-0.436-1.061-0.886-1.403c-0.45-0.345-0.994-0.515-1.638-0.515c-0.886,0-1.605,0.304-2.157,0.911
				c-0.554,0.609-0.831,1.594-0.831,2.954c0,1.448,0.272,2.477,0.818,3.09c0.543,0.614,1.251,0.922,2.122,0.922
				c0.64,0,1.193-0.196,1.655-0.588C433.67,115.064,434.002,114.451,434.201,113.614z"/>
			<path fill="#FFFFFF" d="M446.274,113.614l2.346,0.711c-0.359,1.248-0.959,2.175-1.794,2.78s-1.896,0.908-3.179,0.908
				c-1.59,0-2.896-0.518-3.919-1.557c-1.022-1.037-1.534-2.455-1.534-4.253c0-1.903,0.514-3.381,1.543-4.435
				c1.029-1.051,2.381-1.577,4.059-1.577c1.462,0,2.649,0.412,3.566,1.239c0.544,0.488,0.95,1.189,1.224,2.104l-2.39,0.547
				c-0.146-0.595-0.438-1.061-0.888-1.403c-0.449-0.345-0.994-0.515-1.638-0.515c-0.886,0-1.605,0.304-2.158,0.911
				c-0.553,0.609-0.83,1.594-0.83,2.954c0,1.448,0.272,2.477,0.818,3.09c0.544,0.614,1.251,0.922,2.122,0.922
				c0.642,0,1.193-0.196,1.656-0.588C445.743,115.064,446.075,114.451,446.274,113.614z"/>
			<path fill="#FFFFFF" d="M450.617,117.816v-11.43h2.419v11.43H450.617z"/>
			<path fill="#FFFFFF" d="M454.847,112.171c0-1.165,0.183-2.141,0.547-2.931c0.272-0.583,0.645-1.106,1.114-1.567
				c0.47-0.462,0.987-0.805,1.548-1.028c0.745-0.303,1.606-0.452,2.58-0.452c1.763,0,3.171,0.522,4.232,1.565
				c1.059,1.046,1.586,2.5,1.586,4.359c0,1.845-0.523,3.289-1.573,4.333c-1.053,1.043-2.455,1.563-4.212,1.563
				c-1.779,0-3.197-0.518-4.246-1.557C455.373,115.42,454.847,113.992,454.847,112.171z M457.335,112.094
				c0,1.294,0.314,2.276,0.94,2.944c0.627,0.67,1.42,1.004,2.384,1.004s1.752-0.332,2.37-0.994c0.619-0.666,0.929-1.66,0.929-2.985
				c0-1.31-0.302-2.288-0.902-2.932c-0.603-0.646-1.4-0.966-2.396-0.966c-0.995,0-1.799,0.323-2.407,0.978
				C457.644,109.795,457.335,110.778,457.335,112.094z M459.165,105.73l1.127-2.331h2.571l-2.243,2.331H459.165z"/>
			<path fill="#FFFFFF" d="M468.364,117.816v-11.43h2.351l4.898,7.633v-7.633h2.245v11.43h-2.422l-4.824-7.453v7.453H468.364z"/>
		</g>
		<g>
			<g>
				<path fill="#FFFFFF" d="M346.625,83.013c-0.258,0-0.501-0.104-0.684-0.266l0,0c-0.179-0.179-0.283-0.415-0.283-0.646l0,0
					l0.19-68.85c0.002-0.236,0.104-0.477,0.277-0.652l0,0c0.187-0.164,0.428-0.261,0.69-0.261l0,0l17.731,0.058l-0.006,0.908
					l0.006-0.908c0.53-0.006,0.965,0.405,0.971,0.912l0,0l-0.194,68.84c0,0.242-0.104,0.482-0.286,0.645l0,0
					c-0.176,0.176-0.433,0.265-0.683,0.267l0,0L346.625,83.013L346.625,83.013z M347.6,81.188l15.798,0.038l0.177-67.008
					l-15.796-0.051L347.6,81.188L347.6,81.188z"/>
			</g>
			<g>
				<path fill="#FFFFFF" d="M263.106,82.777c-0.369,0.007-0.705-0.186-0.857-0.5l0,0l-9.334-17.746l-0.051,17.319
					c0.002,0.23-0.106,0.467-0.281,0.637l0,0c-0.181,0.166-0.428,0.27-0.685,0.266l0,0l-21.381-0.056
					c-0.251-0.002-0.505-0.099-0.687-0.274l0,0c-0.177-0.167-0.279-0.405-0.273-0.639l0,0l0.184-68.849
					c0.009-0.242,0.107-0.479,0.293-0.647l0,0c0.178-0.172,0.428-0.267,0.686-0.269l0,0l21.386,0.058
					c0.352,0,0.681,0.181,0.844,0.479l0,0l9.127,15.719l0.041-15.257c0.002-0.241,0.103-0.473,0.281-0.639l0,0
					c0.179-0.171,0.43-0.273,0.682-0.271l0,0l20.163,0.055l-0.008,0.92l0.008-0.92c0.252,0.007,0.498,0.1,0.681,0.273l0,0
					c0.177,0.177,0.278,0.404,0.28,0.64l0,0l-0.19,68.854c0.001,0.244-0.104,0.477-0.284,0.646l0,0
					c-0.182,0.175-0.432,0.264-0.693,0.26l0,0L263.106,82.777L263.106,82.777z M252.825,60.259l10.876,20.694l18.378,0.059
					l0.185-67.021l-18.22-0.05l-0.046,17.886c-0.007,0.416-0.305,0.777-0.728,0.879l0,0c-0.434,0.11-0.872-0.077-1.089-0.444l0,0
					l-10.649-18.359l-19.859-0.053l-0.183,67.023l19.443,0.055l0.057-20.269c-0.002-0.424,0.312-0.785,0.747-0.89l0,0
					c0.076-0.014,0.156-0.016,0.223-0.016l0,0C252.319,59.752,252.658,59.944,252.825,60.259L252.825,60.259z"/>
			</g>
			<g>
				<path fill="#FFFFFF" d="M175.718,82.53c-0.529,0.006-0.958-0.401-0.963-0.908l0,0l0.193-68.84
					c0.002-0.501,0.436-0.91,0.971-0.91l0,0l48.758,0.132c0.256,0.006,0.5,0.097,0.687,0.268l0,0
					c0.181,0.168,0.271,0.406,0.274,0.65l0,0l-0.045,18.603c-0.008,0.25-0.109,0.479-0.288,0.653l0,0
					c-0.19,0.17-0.433,0.258-0.683,0.265l0,0l-24.398-0.065c-1.697-0.012-2.918,0.373-3.646,0.852l0,0
					c-0.738,0.484-0.99,1.015-0.996,1.465l0,0c-0.001,0.454,0.236,0.952,0.961,1.429l0,0c0.711,0.461,1.922,0.835,3.659,0.837l0,0
					l24.404,0.067c0.261,0.002,0.507,0.102,0.686,0.269l0,0c0.174,0.171,0.284,0.405,0.284,0.649l0,0l-0.057,17.863
					c0,0.242-0.104,0.473-0.278,0.643l0,0c-0.193,0.175-0.431,0.27-0.685,0.273l0,0l-24.395-0.068
					c-1.692-0.003-2.879,0.404-3.611,0.926l0,0c-0.725,0.521-1.006,1.128-1.018,1.708l0,0c0.002,0.574,0.277,1.175,0.998,1.703l0,0
					c0.719,0.521,1.893,0.934,3.591,0.95l0,0l24.417,0.063c0.262,0.007,0.506,0.098,0.688,0.271l0,0
					c0.173,0.168,0.277,0.4,0.279,0.645l0,0l-0.053,18.841c-0.002,0.242-0.1,0.476-0.285,0.645l0,0
					c-0.183,0.173-0.424,0.269-0.685,0.265l0,0L175.718,82.53L175.718,82.53z M176.698,80.713l46.822,0.128l0.044-17.011
					l-23.458-0.066c-2.02-0.024-3.618-0.514-4.744-1.327l0,0c-1.134-0.804-1.769-1.964-1.762-3.151l0,0
					c0.004-1.197,0.65-2.357,1.791-3.16l0,0c1.139-0.818,2.751-1.297,4.77-1.293l0,0l23.435,0.062l0.04-16.039l-23.433-0.066
					c-2.024-0.008-3.608-0.428-4.751-1.157l0,0c-1.134-0.715-1.816-1.793-1.805-2.939l0,0c-0.001-1.153,0.699-2.234,1.838-2.967l0,0
					c1.143-0.741,2.736-1.179,4.742-1.181l0,0l23.428,0.072l0.051-16.789l-46.83-0.131L176.698,80.713L176.698,80.713z"/>
			</g>
			<g>
				<path fill="#FFFFFF" d="M118.729,82.377c-0.533,0.002-0.961-0.414-0.961-0.914l0,0l0.047-18.746
					c-0.002-0.507,0.44-0.917,0.975-0.91l0,0l21.866,0.065c0,0,0,0,0.034-0.002l0,0c1.686,0,2.871-0.406,3.598-0.935l0,0
					c0.72-0.528,1.016-1.155,1.02-1.747l0,0c-0.004-0.599-0.289-1.217-1.013-1.743l0,0c-0.72-0.533-1.912-0.948-3.62-0.952l0,0
					l-9.219-0.02c-4.265-0.07-7.65-1.251-9.985-3.203l0,0c-2.326-1.938-3.554-4.634-3.548-7.523l0,0
					c0.016-2.514-0.03-8.425-0.014-13.197l0,0c0.002-2.385,0.027-4.474,0.068-5.733l0,0c0.115-3.079,0.179-5.836,0.957-8.226l0,0
					c0.771-2.384,2.404-4.385,5.346-5.525l0,0c1.949-0.761,4.443-1.2,7.697-1.315l0,0c0.793-0.026,5.191-0.019,10.784-0.007l0,0
					c11.166,0.033,26.923,0.109,26.923,0.109l0,0c0.537,0.008,0.967,0.413,0.959,0.913l0,0l-0.045,18.617
					c-0.006,0.239-0.103,0.479-0.287,0.648l0,0c-0.174,0.165-0.425,0.272-0.68,0.265l0,0l-23.244-0.063
					c-1.735-0.005-2.955,0.38-3.69,0.856l0,0c-0.749,0.488-1.005,1.02-1.013,1.475l0,0c0.013,0.447,0.249,0.941,0.957,1.41l0,0
					c0.721,0.465,1.924,0.832,3.65,0.838l0,0c0.043,0.003,0.069,0.005,0.073,0.003l0,0l10.259,0.013
					c3.812,0.041,7.151,0.955,9.631,2.811l0,0c2.487,1.854,4.033,4.654,4.298,8.201l0,0l0.001,0.066l-0.041,14.359
					c-0.038,7.634-0.639,12.662-4.024,15.925l0,0c-3.435,3.223-9.101,4.185-18.671,4.307l0,0L118.729,82.377L118.729,82.377z
					 M119.702,80.563l28.105,0.103c9.47-0.088,14.643-1.179,17.303-3.759l0,0c2.711-2.531,3.46-7.061,3.467-14.647l0,0l0.037-14.32
					c-0.244-3.121-1.519-5.35-3.562-6.879l0,0c-2.037-1.524-4.939-2.36-8.436-2.412l0,0l-10.27-0.011
					c-0.035,0.003-0.057,0.002-0.062,0.003l0,0c-2.014-0.012-3.59-0.435-4.717-1.149l0,0c-1.135-0.724-1.816-1.799-1.811-2.936l0,0
					c-0.003-1.16,0.699-2.246,1.844-2.976l0,0c1.155-0.733,2.765-1.174,4.783-1.176l0,0l22.287,0.06l0.045-16.794
					c-1.482-0.006-4.549-0.019-8.314-0.044l0,0c-5.334-0.017-12.061-0.044-17.645-0.062l0,0c-5.566-0.014-10.029-0.015-10.719,0.005
					l0,0c-3.1,0.111-5.373,0.533-7.012,1.18l0,0c-1.65,0.656-2.667,1.51-3.383,2.568l0,0c-1.451,2.135-1.604,5.44-1.734,9.569l0,0
					c-0.043,1.206-0.065,3.294-0.072,5.673l0,0c-0.014,4.749,0.025,10.668,0.023,13.194l0,0c-0.002,2.402,0.977,4.536,2.889,6.155
					l0,0c1.926,1.604,4.834,2.675,8.717,2.738l0,0l9.209,0.017c2.031,0.006,3.654,0.503,4.798,1.325l0,0
					c1.14,0.818,1.774,2.002,1.768,3.21l0,0c0.005,1.197-0.642,2.376-1.782,3.189l0,0c-1.139,0.817-2.753,1.307-4.765,1.303l0,0
					c0,0-0.008-0.002-0.04,0l0,0l-20.902-0.062L119.702,80.563L119.702,80.563z M169.634,31.376l0.002-0.904L169.634,31.376
					L169.634,31.376z"/>
			</g>
			<g>
				<path fill="#FFFFFF" d="M290.462,81.034c-1.485-1.218-2.379-3.041-2.355-5.168l0,0l0.154-55.938
					c0.002-2.115,0.873-4.057,2.334-5.464l0,0c1.465-1.399,3.531-2.278,5.864-2.265l0,0l34.616,0.098
					c2.335,0,4.393,0.885,5.843,2.292l0,0c1.461,1.412,2.312,3.355,2.304,5.484l0,0l-0.062,24.688
					c-0.006,0.248-0.104,0.479-0.287,0.641l0,0c-0.175,0.184-0.426,0.273-0.68,0.273l0,0l-20.504-0.061
					c-0.253,0.001-0.503-0.096-0.683-0.267l0,0c-0.187-0.168-0.286-0.409-0.281-0.642l0,0l0.028-10.84
					c-0.011-0.717-0.305-1.169-0.84-1.557l0,0c-0.536-0.381-1.329-0.62-2.133-0.609l0,0c-0.78-0.015-1.527,0.207-2.029,0.563l0,0
					c-0.513,0.373-0.803,0.821-0.819,1.59l0,0l-0.08,27.217l0,0l0,0l0,0c0.017,0.746,0.298,1.174,0.791,1.537l0,0
					c0.501,0.358,1.252,0.57,2.038,0.568l0,0c0.796,0.01,1.613-0.217,2.146-0.58l0,0c0.547-0.389,0.837-0.824,0.856-1.517l0,0
					l0.026-12.345c0.006-0.241,0.1-0.479,0.282-0.64l0,0c0.188-0.178,0.427-0.274,0.687-0.269l0,0l20.508,0.052
					c0.261,0.003,0.504,0.099,0.676,0.271l0,0c0.184,0.167,0.291,0.406,0.285,0.655l0,0l-0.076,27.205
					c0.004,2.116-0.882,3.93-2.374,5.135l0,0c-1.488,1.213-3.524,1.837-5.784,1.822l0,0l-34.655-0.072
					C293.99,82.896,291.95,82.254,290.462,81.034L290.462,81.034z M296.457,14.027c-3.635,0.006-6.236,2.604-6.268,5.913l0,0
					l-0.152,55.937c0.006,1.665,0.636,2.891,1.693,3.779l0,0c1.08,0.881,2.64,1.408,4.53,1.415l0,0l34.657,0.081
					c1.889,0.006,3.438-0.517,4.521-1.388l0,0c1.062-0.878,1.694-2.102,1.706-3.756l0,0l0.062-26.303l-18.559-0.056l-0.03,11.438
					c-0.003,1.294-0.712,2.357-1.664,2.985l0,0c-0.948,0.642-2.117,0.938-3.278,0.931l0,0c-1.127,0-2.267-0.291-3.19-0.932l0,0
					c-0.928-0.639-1.579-1.72-1.561-3.008l0,0c0-0.006,0.002-0.019,0.002-0.024l0,0l0.073-27.2c-0.004-1.306,0.657-2.385,1.585-3.03
					l0,0c0.926-0.657,2.073-0.94,3.205-0.94l0,0c1.151,0.011,2.326,0.316,3.273,0.969l0,0c0.94,0.649,1.632,1.735,1.625,3.041l0,0
					l-0.968-0.011l0.968,0.011l-0.028,9.916l18.57,0.049l0.067-23.775c-0.014-3.311-2.604-5.927-6.23-5.949l0,0L296.457,14.027
					L296.457,14.027z"/>
			</g>
			<g>
				<path fill="#FFFFFF" d="M413.524,83.2L378.941,83.1c-2.333,0-4.39-0.891-5.843-2.304l0,0c-1.453-1.419-2.305-3.36-2.299-5.485
					l0,0l0.15-55.938c-0.001-2.11,0.847-3.91,2.316-5.113l0,0c1.468-1.213,3.483-1.826,5.732-1.827l0,0l34.763,0.089
					c2.255,0.005,4.295,0.624,5.787,1.845l0,0c1.489,1.215,2.383,3.02,2.373,5.14l0,0l-0.069,24.7
					c-0.002,0.243-0.103,0.472-0.28,0.644l0,0c-0.18,0.174-0.435,0.27-0.688,0.267l0,0l-20.498-0.055
					c-0.266-0.004-0.507-0.101-0.688-0.269l0,0c-0.177-0.173-0.277-0.407-0.284-0.644l0,0l0.029-10.177
					c-0.006-0.629-0.28-1.046-0.832-1.419l0,0c-0.547-0.37-1.365-0.585-2.183-0.592l0,0c-0.791-0.007-1.548,0.206-2.032,0.536l0,0
					c-0.491,0.347-0.76,0.738-0.783,1.433l0,0l0.012,0.028l-0.072,27.34l-0.002,0.016l0,0c0.002,0.688,0.295,1.121,0.826,1.51l0,0
					c0.535,0.366,1.341,0.595,2.152,0.589l0,0c0.785,0.008,1.547-0.205,2.045-0.552l0,0c0.493-0.364,0.789-0.781,0.802-1.519l0,0
					c0-0.002-0.002-0.018-0.002-0.026l0,0l0.034-13.136c0-0.24,0.101-0.473,0.285-0.651l0,0c0.181-0.166,0.423-0.26,0.686-0.264l0,0
					l20.499,0.06c0.252-0.002,0.504,0.094,0.687,0.264l0,0c0.175,0.172,0.283,0.407,0.276,0.646l0,0l-0.066,27.219
					c-0.012,2.124-0.888,4.076-2.37,5.48l0,0c-1.47,1.398-3.541,2.268-5.87,2.267l0,0H413.524L413.524,83.2z M378.992,14.269
					c-1.893-0.011-3.415,0.504-4.454,1.362l0,0c-1.026,0.864-1.64,2.078-1.655,3.749l0,0l-0.154,55.935
					c0.014,3.317,2.588,5.936,6.217,5.956l0,0l34.585,0.097c3.63,0.003,6.272-2.619,6.304-5.924l0,0l0.064-26.295l-18.562-0.06
					l-0.032,12.23c-0.002,0.011-0.002,0.021-0.004,0.03l0,0c0.011,1.28-0.657,2.36-1.582,2.982l0,0
					c-0.928,0.638-2.067,0.912-3.191,0.914l0,0c-1.164-0.01-2.337-0.302-3.278-0.945l0,0c-0.949-0.631-1.653-1.706-1.633-2.992l0,0
					c0,0-0.002-0.008,0.005-0.036l0,0l0.071-27.312l0,0c0-0.013,0.002-0.021,0.002-0.024l0,0c-0.01-1.262,0.653-2.316,1.578-2.925
					l0,0c0.916-0.614,2.04-0.869,3.16-0.869l0,0c1.162,0.009,2.332,0.293,3.282,0.912l0,0c0.954,0.602,1.676,1.656,1.668,2.924l0,0
					l-0.028,9.264l18.567,0.044l0.064-23.78c-0.005-1.657-0.634-2.878-1.692-3.756l0,0c-1.072-0.879-2.645-1.403-4.54-1.409l0,0
					L378.992,14.269L378.992,14.269z"/>
			</g>
			<g>
				<path fill="#FFFFFF" d="M469.577,83.342l-34.549-0.126c-2.279-0.011-4.343-0.715-5.85-1.996l0,0
					c-1.483-1.273-2.379-3.13-2.37-5.254l0,0l0.145-55.949c0.008-2.114,0.889-4.006,2.358-5.337l0,0
					c1.474-1.337,3.532-2.108,5.843-2.104l0,0l34.628,0.102c2.303,0.004,4.353,0.79,5.824,2.127l0,0
					c1.461,1.339,2.324,3.232,2.327,5.355l0,0l-0.057,17.136l-0.029,14.624l-0.076,24.182c0.006,2.129-0.876,3.982-2.372,5.259l0,0
					c-1.474,1.288-3.526,1.991-5.806,1.984l0,0C469.582,83.342,469.582,83.342,469.577,83.342L469.577,83.342z M428.893,20.032
					l-0.153,55.939c-0.001,1.652,0.652,2.96,1.745,3.896l0,0c1.104,0.944,2.683,1.508,4.559,1.521l0,0l34.544,0.131
					c1.873,0.012,3.422-0.567,4.512-1.506l0,0c1.082-0.943,1.732-2.264,1.745-3.921l0,0l0.065-24.184l0.042-14.617l0.048-17.132
					c-0.021-3.285-2.54-5.611-6.221-5.657l0,0l-34.632-0.098C431.452,14.433,428.933,16.738,428.893,20.032L428.893,20.032z
					 M447.659,61.694l-0.029-0.246l0.072-27.344l0.002-0.115c0.161-1.211,0.841-2.188,1.734-2.795l0,0
					c0.904-0.611,1.976-0.896,3.055-0.889l0,0c1.086-0.002,2.178,0.296,3.091,0.907l0,0c0.904,0.607,1.604,1.574,1.788,2.781l0,0
					l0.021,0.138l-0.039,10.67l-0.009,4.035l-0.036,12.637l-0.03,0.221c-0.614,2.395-2.718,3.731-4.793,3.708l0,0
					c-0.025-0.002-0.04,0.003-0.051,0l0,0C450.386,65.395,448.33,64.078,447.659,61.694L447.659,61.694z M452.483,63.579
					c1.225-0.02,2.428-0.685,2.893-2.231l0,0l0.039-12.521l0.014-4.032l0.025-10.589c-0.123-0.687-0.484-1.154-1.002-1.51l0,0
					c-0.524-0.365-1.25-0.565-1.965-0.571l0,0c-0.713,0.002-1.403,0.201-1.912,0.545l0,0c-0.484,0.347-0.824,0.801-0.949,1.508l0,0
					l-0.069,27.146C450.075,62.91,451.28,63.555,452.483,63.579L452.483,63.579z"/>
			</g>
		</g>
		<g>
			<path fill="#FFFFFF" d="M121.218,96.33l2.351-0.22c0.142,0.755,0.429,1.309,0.861,1.663c0.433,0.354,1.017,0.528,1.752,0.528
				c0.777,0,1.362-0.155,1.759-0.47c0.395-0.314,0.592-0.684,0.592-1.103c0-0.272-0.083-0.5-0.249-0.693
				c-0.166-0.188-0.456-0.353-0.869-0.492c-0.284-0.096-0.929-0.262-1.936-0.5c-1.295-0.309-2.203-0.683-2.726-1.133
				c-0.734-0.627-1.103-1.396-1.103-2.3c0-0.581,0.173-1.127,0.519-1.634c0.346-0.508,0.843-0.891,1.494-1.158
				c0.65-0.265,1.436-0.396,2.354-0.396c1.502,0,2.632,0.314,3.392,0.943c0.76,0.628,1.158,1.467,1.195,2.521l-2.415,0.099
				c-0.104-0.586-0.325-1.008-0.665-1.267c-0.342-0.255-0.852-0.385-1.531-0.385c-0.702,0-1.252,0.138-1.648,0.413
				c-0.256,0.178-0.385,0.412-0.385,0.711c0,0.269,0.121,0.501,0.359,0.691c0.305,0.245,1.045,0.501,2.221,0.767
				s2.045,0.539,2.609,0.82c0.562,0.284,1.004,0.671,1.321,1.163c0.317,0.491,0.478,1.099,0.478,1.82c0,0.655-0.19,1.269-0.57,1.842
				c-0.383,0.571-0.92,0.996-1.617,1.274s-1.564,0.417-2.604,0.417c-1.513,0-2.675-0.333-3.485-1.003
				C121.859,98.585,121.376,97.608,121.218,96.33z"/>
			<path fill="#FFFFFF" d="M132.981,100.049V88.617h8.873v1.935h-6.457v2.535h6.008v1.926h-6.008v3.112h6.686v1.924H132.981z"/>
			<path fill="#FFFFFF" d="M144.14,100.049V88.617h5.086c1.279,0,2.208,0.104,2.787,0.31c0.58,0.204,1.044,0.568,1.393,1.095
				c0.348,0.524,0.521,1.128,0.521,1.801c0,0.857-0.264,1.565-0.791,2.124c-0.527,0.561-1.316,0.911-2.367,1.061
				c0.522,0.288,0.954,0.607,1.294,0.956c0.341,0.349,0.798,0.966,1.376,1.857l1.461,2.229h-2.891l-1.746-2.486
				c-0.621-0.889-1.045-1.45-1.273-1.68c-0.229-0.23-0.471-0.391-0.727-0.476c-0.256-0.088-0.662-0.129-1.217-0.129h-0.489v4.771
				H144.14z M146.557,93.453h1.788c1.159,0,1.882-0.047,2.171-0.14c0.288-0.094,0.515-0.256,0.678-0.483
				c0.163-0.23,0.244-0.517,0.244-0.857c0-0.386-0.108-0.694-0.322-0.933c-0.216-0.238-0.519-0.389-0.91-0.45
				c-0.195-0.025-0.783-0.038-1.763-0.038h-1.886V93.453z"/>
			<path fill="#FFFFFF" d="M159.258,100.049l-4.276-11.432h2.619l3.028,8.463l2.931-8.463h2.563l-4.286,11.432H159.258z"/>
			<path fill="#FFFFFF" d="M167.282,100.049V88.617h2.417v11.432H167.282z"/>
			<path fill="#FFFFFF" d="M179.659,95.848l2.342,0.709c-0.359,1.246-0.957,2.176-1.792,2.78c-0.835,0.606-1.896,0.909-3.18,0.909
				c-1.589,0-2.896-0.521-3.918-1.558c-1.023-1.036-1.534-2.455-1.534-4.253c0-1.903,0.514-3.38,1.542-4.434
				c1.028-1.053,2.381-1.579,4.058-1.579c1.464,0,2.652,0.413,3.566,1.239c0.545,0.488,0.953,1.191,1.225,2.107l-2.391,0.544
				c-0.143-0.591-0.438-1.059-0.887-1.402s-0.994-0.515-1.637-0.515c-0.888,0-1.607,0.304-2.158,0.91
				c-0.554,0.609-0.829,1.595-0.829,2.957c0,1.446,0.272,2.476,0.815,3.088c0.545,0.613,1.252,0.921,2.123,0.921
				c0.643,0,1.195-0.194,1.656-0.585C179.124,97.296,179.456,96.683,179.659,95.848z"/>
			<path fill="#FFFFFF" d="M184.001,100.049V88.617h2.416v11.432H184.001z"/>
			<path fill="#FFFFFF" d="M188.229,94.402c0-1.161,0.183-2.139,0.547-2.932c0.272-0.581,0.644-1.102,1.114-1.565
				c0.472-0.465,0.986-0.806,1.547-1.029c0.746-0.302,1.606-0.453,2.58-0.453c1.764,0,3.174,0.522,4.232,1.565
				c1.059,1.046,1.588,2.501,1.588,4.362c0,1.846-0.525,3.29-1.575,4.33c-1.051,1.043-2.454,1.565-4.212,1.565
				c-1.781,0-3.195-0.521-4.246-1.558C188.755,97.652,188.229,96.225,188.229,94.402z M190.718,94.326
				c0,1.295,0.314,2.275,0.939,2.943c0.626,0.669,1.421,1.003,2.384,1.003c0.964,0,1.755-0.331,2.371-0.994
				c0.618-0.665,0.927-1.657,0.927-2.983c0-1.31-0.301-2.289-0.902-2.933s-1.398-0.966-2.396-0.966
				c-0.995,0-1.798,0.327-2.407,0.978C191.022,92.028,190.718,93.011,190.718,94.326z"/>
			<path fill="#FFFFFF" d="M214.392,100.049V88.617h2.352l4.897,7.635v-7.635h2.245v11.432h-2.425l-4.824-7.454v7.454H214.392z"/>
			<path fill="#FFFFFF" d="M237.232,100.049h-2.629l-1.046-2.596h-4.782l-0.987,2.596h-2.563l4.661-11.432h2.555L237.232,100.049z
				 M232.784,95.527l-1.649-4.243l-1.616,4.243H232.784z"/>
			<path fill="#FFFFFF" d="M246.172,95.848l2.343,0.709c-0.36,1.246-0.957,2.176-1.793,2.78c-0.836,0.606-1.895,0.909-3.179,0.909
				c-1.589,0-2.896-0.521-3.919-1.558c-1.023-1.036-1.535-2.455-1.535-4.253c0-1.903,0.516-3.38,1.543-4.434
				c1.029-1.053,2.381-1.579,4.058-1.579c1.464,0,2.652,0.413,3.567,1.239c0.543,0.488,0.953,1.191,1.224,2.107l-2.391,0.544
				c-0.143-0.591-0.438-1.059-0.886-1.402c-0.449-0.344-0.995-0.515-1.637-0.515c-0.888,0-1.607,0.304-2.16,0.91
				c-0.552,0.609-0.828,1.595-0.828,2.957c0,1.446,0.271,2.476,0.816,3.088c0.543,0.613,1.252,0.921,2.122,0.921
				c0.643,0,1.196-0.194,1.657-0.585C245.638,97.296,245.969,96.683,246.172,95.848z"/>
			<path fill="#FFFFFF" d="M250.514,100.049V88.617h2.417v11.432H250.514z"/>
			<path fill="#FFFFFF" d="M254.742,94.402c0-1.161,0.183-2.139,0.546-2.932c0.272-0.581,0.645-1.102,1.114-1.565
				c0.472-0.465,0.986-0.806,1.547-1.029c0.746-0.302,1.606-0.453,2.58-0.453c1.764,0,3.175,0.522,4.233,1.565
				c1.06,1.046,1.587,2.501,1.587,4.362c0,1.846-0.523,3.29-1.574,4.33c-1.051,1.043-2.456,1.565-4.212,1.565
				c-1.78,0-3.195-0.521-4.245-1.558C255.268,97.652,254.742,96.225,254.742,94.402z M257.231,94.326
				c0,1.295,0.312,2.275,0.94,2.943c0.624,0.669,1.418,1.003,2.383,1.003c0.962,0,1.753-0.331,2.371-0.994
				c0.616-0.665,0.925-1.657,0.925-2.983c0-1.31-0.3-2.289-0.899-2.933c-0.602-0.644-1.401-0.966-2.396-0.966
				c-0.997,0-1.8,0.327-2.408,0.978C257.536,92.028,257.231,93.011,257.231,94.326z"/>
			<path fill="#FFFFFF" d="M268.26,100.049V88.617h2.351l4.897,7.635v-7.635h2.244v11.432h-2.421l-4.826-7.454v7.454H268.26z"/>
			<path fill="#FFFFFF" d="M291.1,100.049h-2.627l-1.046-2.596h-4.783l-0.99,2.596h-2.561l4.661-11.432h2.554L291.1,100.049z
				 M286.652,95.527l-1.65-4.243l-1.615,4.243H286.652z"/>
			<path fill="#FFFFFF" d="M292.447,100.049V88.712h2.415v9.413h6.009v1.924H292.447z"/>
			<path fill="#FFFFFF" d="M316.231,88.617h4.417c0.996,0,1.754,0.074,2.276,0.219c0.701,0.198,1.304,0.551,1.804,1.052
				c0.501,0.507,0.882,1.124,1.142,1.854c0.262,0.731,0.394,1.631,0.394,2.701c0,0.942-0.124,1.754-0.366,2.436
				c-0.301,0.829-0.729,1.504-1.283,2.019c-0.418,0.389-0.986,0.693-1.699,0.914c-0.532,0.157-1.246,0.238-2.137,0.238h-4.547
				V88.617z M318.646,90.552v7.573h1.805c0.676,0,1.163-0.036,1.46-0.11c0.393-0.092,0.718-0.252,0.978-0.476
				c0.257-0.225,0.47-0.591,0.632-1.104c0.163-0.512,0.245-1.211,0.245-2.095s-0.082-1.562-0.245-2.034
				c-0.162-0.474-0.394-0.842-0.687-1.108c-0.291-0.265-0.665-0.444-1.119-0.538c-0.336-0.073-0.996-0.108-1.981-0.108H318.646z"/>
			<path fill="#FFFFFF" d="M328.312,100.049V88.617h8.872v1.935h-6.458v2.535h6.009v1.926h-6.009v3.112h6.687v1.924H328.312z"/>
			<path fill="#FFFFFF" d="M359.764,95.848l2.344,0.709c-0.359,1.246-0.958,2.176-1.792,2.78c-0.836,0.606-1.895,0.909-3.18,0.909
				c-1.589,0-2.895-0.521-3.917-1.558c-1.024-1.036-1.534-2.455-1.534-4.253c0-1.903,0.512-3.38,1.54-4.434
				c1.03-1.053,2.383-1.579,4.059-1.579c1.464,0,2.655,0.413,3.567,1.239c0.546,0.488,0.953,1.191,1.227,2.107l-2.395,0.544
				c-0.141-0.591-0.436-1.059-0.886-1.402c-0.449-0.344-0.995-0.515-1.635-0.515c-0.89,0-1.609,0.304-2.16,0.91
				c-0.555,0.609-0.829,1.595-0.829,2.957c0,1.446,0.272,2.476,0.815,3.088c0.543,0.613,1.252,0.921,2.123,0.921
				c0.642,0,1.193-0.194,1.658-0.585C359.231,97.296,359.564,96.683,359.764,95.848z"/>
			<path fill="#FFFFFF" d="M374.974,100.049h-2.631l-1.042-2.596h-4.786l-0.986,2.596h-2.563l4.661-11.432h2.554L374.974,100.049z
				 M370.525,95.527l-1.651-4.243l-1.614,4.243H370.525z"/>
			<path fill="#FFFFFF" d="M376.255,100.049V88.617h3.878c1.469,0,2.425,0.059,2.875,0.173c0.686,0.171,1.259,0.545,1.72,1.12
				c0.463,0.572,0.693,1.313,0.693,2.227c0,0.7-0.134,1.29-0.4,1.768c-0.266,0.479-0.605,0.854-1.016,1.13
				c-0.409,0.27-0.827,0.451-1.252,0.539c-0.577,0.11-1.413,0.164-2.506,0.164h-1.576v4.312H376.255z M378.671,90.552v3.245h1.32
				c0.955,0,1.591-0.061,1.913-0.18c0.319-0.121,0.571-0.306,0.754-0.562c0.182-0.255,0.273-0.551,0.273-0.89
				c0-0.416-0.128-0.759-0.382-1.029c-0.259-0.271-0.581-0.438-0.974-0.507c-0.288-0.052-0.868-0.078-1.737-0.078H378.671z"/>
			<path fill="#FFFFFF" d="M398.196,100.049h-2.627l-1.046-2.596h-4.784l-0.988,2.596h-2.562l4.661-11.432h2.555L398.196,100.049z
				 M393.747,95.527l-1.648-4.243l-1.614,4.243H393.747z"/>
			<path fill="#FFFFFF" d="M407.135,95.848l2.344,0.709c-0.36,1.246-0.957,2.176-1.793,2.78c-0.835,0.606-1.896,0.909-3.179,0.909
				c-1.591,0-2.895-0.521-3.918-1.558c-1.023-1.036-1.535-2.455-1.535-4.253c0-1.903,0.514-3.38,1.542-4.434
				c1.029-1.053,2.382-1.579,4.06-1.579c1.463,0,2.653,0.413,3.565,1.239c0.545,0.488,0.953,1.191,1.226,2.107l-2.394,0.544
				c-0.142-0.591-0.434-1.059-0.885-1.402c-0.449-0.344-0.995-0.515-1.638-0.515c-0.887,0-1.606,0.304-2.157,0.91
				c-0.554,0.609-0.827,1.595-0.827,2.957c0,1.446,0.27,2.476,0.812,3.088c0.545,0.613,1.254,0.921,2.122,0.921
				c0.644,0,1.196-0.194,1.656-0.585C406.602,97.296,406.934,96.683,407.135,95.848z"/>
			<path fill="#FFFFFF" d="M411.479,100.049V88.617h2.417v11.432H411.479z"/>
			<path fill="#FFFFFF" d="M418.889,100.049v-9.497h-3.551v-1.935h9.511v1.935h-3.544v9.497H418.889z"/>
			<path fill="#FFFFFF" d="M437.203,100.049h-2.632l-1.045-2.596h-4.782l-0.988,2.596h-2.562l4.659-11.432h2.555L437.203,100.049z
				 M432.751,95.527l-1.648-4.243l-1.615,4.243H432.751z"/>
			<path fill="#FFFFFF" d="M446.14,95.848l2.342,0.709c-0.36,1.246-0.954,2.176-1.79,2.78c-0.835,0.606-1.896,0.909-3.182,0.909
				c-1.588,0-2.894-0.521-3.918-1.558c-1.022-1.036-1.535-2.455-1.535-4.253c0-1.903,0.515-3.38,1.544-4.434
				c1.029-1.053,2.381-1.579,4.056-1.579c1.467,0,2.654,0.413,3.567,1.239c0.544,0.488,0.953,1.191,1.225,2.107l-2.391,0.544
				c-0.143-0.591-0.438-1.059-0.887-1.402c-0.448-0.344-0.993-0.515-1.636-0.515c-0.887,0-1.607,0.304-2.159,0.91
				c-0.552,0.609-0.828,1.595-0.828,2.957c0,1.446,0.272,2.476,0.815,3.088c0.545,0.613,1.251,0.921,2.123,0.921
				c0.642,0,1.196-0.194,1.656-0.585C445.606,97.296,445.937,96.683,446.14,95.848z"/>
			<path fill="#FFFFFF" d="M450.48,100.049V88.617h2.42v11.432H450.48z"/>
			<path fill="#FFFFFF" d="M454.709,94.402c0-1.161,0.184-2.139,0.548-2.932c0.272-0.581,0.644-1.102,1.115-1.565
				c0.471-0.465,0.988-0.806,1.549-1.029c0.741-0.302,1.604-0.453,2.577-0.453c1.763,0,3.173,0.522,4.231,1.565
				c1.06,1.046,1.588,2.501,1.588,4.362c0,1.846-0.524,3.29-1.575,4.33c-1.049,1.043-2.455,1.565-4.212,1.565
				c-1.779,0-3.193-0.521-4.243-1.558C455.235,97.652,454.709,96.225,454.709,94.402z M457.2,94.326
				c0,1.295,0.313,2.275,0.938,2.943c0.626,0.669,1.423,1.003,2.383,1.003c0.966,0,1.755-0.331,2.372-0.994
				c0.62-0.665,0.929-1.657,0.929-2.983c0-1.31-0.302-2.289-0.903-2.933s-1.399-0.966-2.397-0.966c-0.993,0-1.798,0.327-2.408,0.978
				C457.505,92.028,457.2,93.011,457.2,94.326z M459.029,87.962l1.126-2.33h2.569l-2.244,2.33H459.029z"/>
			<path fill="#FFFFFF" d="M468.229,100.049V88.617h2.351l4.897,7.635v-7.635h2.246v11.432h-2.426l-4.824-7.454v7.454H468.229z"/>
		</g>
		<path fill-rule="evenodd" clip-rule="evenodd" fill="none" stroke="#FFFFFF" stroke-miterlimit="10" d="M58.865,57.346
			c0,3.145-2.317,5.694-5.177,5.694H18.235c-2.859,0-5.176-2.55-5.176-5.694V19.18c0-3.145,2.316-5.694,5.176-5.694h35.453
			c2.859,0,5.177,2.55,5.177,5.694V57.346z"/>
		<path fill-rule="evenodd" clip-rule="evenodd" fill="none" stroke="#FFFFFF" stroke-miterlimit="10" d="M109.974,57.229
			c0,3.146-2.318,5.695-5.178,5.695H69.343c-2.859,0-5.176-2.55-5.176-5.695V19.062c0-3.145,2.316-5.693,5.176-5.693h35.453
			c2.859,0,5.178,2.549,5.178,5.693V57.229z"/>
		<g>
			<path fill="#FFFFFF" d="M104.796,69.713c2.304,0,4.178,2.105,4.178,4.693v38.166c0,2.589-1.874,4.695-4.178,4.695H69.343
				c-2.303,0-4.176-2.106-4.176-4.695V74.406c0-2.588,1.873-4.693,4.176-4.693H104.796 M104.796,68.713H69.343
				c-2.858,0-5.176,2.549-5.176,5.693v38.166c0,3.146,2.317,5.695,5.176,5.695h35.453c2.859,0,5.178-2.55,5.178-5.695V74.406
				C109.974,71.262,107.655,68.713,104.796,68.713L104.796,68.713z"/>
		</g>
		<polygon fill="#FFFFFF" points="35.962,16.771 18.304,41.582 34.419,50.318 31.447,54.395 31.447,59.754 34.763,59.754 
			34.763,52.764 53.62,41.35 		"/>
		<path fill-rule="evenodd" clip-rule="evenodd" fill="#FFFFFF" d="M101.852,16.324H72.439c-0.737,0-1.333,0.607-1.333,1.356v9.006
			c0,0.748,0.596,1.355,1.333,1.355h13.241v20.59l-3.516,5.912l7.066,5.424l-5.016-5.614l4.395-5.707V28.042h13.241
			c0.736,0,1.333-0.607,1.333-1.355v-9.006C103.185,16.932,102.588,16.324,101.852,16.324z M100.324,24.435
			c0,0.374-0.298,0.678-0.666,0.678H74.624c-0.369,0-0.668-0.304-0.668-0.678v-4.502c0-0.375,0.299-0.678,0.668-0.678h25.034
			c0.368,0,0.666,0.303,0.666,0.678V24.435z"/>
		<g>
			<rect x="68.335" y="72.887" fill-rule="evenodd" clip-rule="evenodd" fill="#FFFFFF" width="11.816" height="4.489"/>
			<polygon fill-rule="evenodd" clip-rule="evenodd" fill="#FFFFFF" points="103.111,86.854 95.751,77.428 99.196,74.632 
				106.556,84.06 			"/>
			<polygon fill-rule="evenodd" clip-rule="evenodd" fill="#FFFFFF" points="101.659,88.323 94.251,78.329 80.151,88.572 
				80.151,78.773 68.335,78.773 68.335,108.668 80.151,108.668 80.151,104.786 			"/>
			<rect x="68.335" y="110.064" fill-rule="evenodd" clip-rule="evenodd" fill="#FFFFFF" width="11.816" height="4.029"/>
		</g>
		<path fill-rule="evenodd" clip-rule="evenodd" fill="none" stroke="#FFFFFF" stroke-miterlimit="10" d="M58.865,112.568
			c0,3.146-2.317,5.695-5.177,5.695H18.235c-2.859,0-5.176-2.55-5.176-5.695V74.402c0-3.145,2.316-5.693,5.176-5.693h35.453
			c2.859,0,5.177,2.549,5.177,5.693V112.568z"/>
		<path fill="#FFFFFF" d="M25.126,100.637c0,0,0,0,0,0.002c-1.321-0.004-2.391,1.064-2.398,2.374
			c-0.004,1.317,1.062,2.401,2.379,2.397c1.316,0.01,2.393-1.061,2.397-2.379c0.006-0.271-0.062-0.573-0.146-0.842
			C27.019,101.27,26.114,100.633,25.126,100.637z M25.126,81.596c0,0,0,0,0,0.002c-1.321-0.004-2.391,1.064-2.398,2.375
			c-0.004,1.316,1.062,2.4,2.379,2.397c1.316,0.009,2.393-1.061,2.397-2.379c0.006-0.271-0.062-0.573-0.146-0.841
			C27.019,82.229,26.114,81.594,25.126,81.596z M45.51,75.014H26.414l-8.925,8.924v19.097l8.925,8.924H45.51l8.925-8.924V83.938
			L45.51,75.014z M25.106,106.114c-1.698-0.009-3.086-1.393-3.082-3.096c0.006-1.706,1.395-3.083,3.094-3.082
			c1.284-0.002,2.453,0.811,2.894,2.011l-0.323,0.121l0.332-0.115c0.117,0.338,0.188,0.712,0.184,1.086
			C28.196,104.74,26.813,106.121,25.106,106.114z M25.106,87.074c-1.698-0.009-3.086-1.393-3.082-3.096
			c0.006-1.706,1.395-3.083,3.094-3.082c1.284-0.002,2.453,0.811,2.894,2.01l-0.323,0.122l0.332-0.115
			c0.117,0.338,0.188,0.712,0.184,1.085C28.196,85.699,26.813,87.08,25.106,87.074z M46.749,106.114
			c-1.699-0.009-3.086-1.393-3.082-3.096c0.005-1.706,1.394-3.083,3.094-3.082c1.283-0.002,2.452,0.811,2.894,2.011l-0.323,0.121
			l0.331-0.115c0.118,0.338,0.188,0.712,0.185,1.086C49.839,104.74,48.456,106.121,46.749,106.114z M46.749,87.074
			c-1.699-0.009-3.086-1.393-3.082-3.096c0.005-1.706,1.394-3.083,3.094-3.082c1.283-0.002,2.452,0.811,2.894,2.01l-0.323,0.122
			l0.331-0.115c0.118,0.338,0.188,0.712,0.185,1.085C49.839,85.699,48.456,87.08,46.749,87.074z M46.769,81.596c0,0,0,0,0,0.002
			c-1.322-0.004-2.391,1.064-2.398,2.375c-0.005,1.316,1.062,2.4,2.379,2.397c1.316,0.009,2.393-1.061,2.396-2.379
			c0.006-0.271-0.062-0.573-0.146-0.841C48.661,82.229,47.756,81.594,46.769,81.596z M46.769,100.637c0,0,0,0,0,0.002
			c-1.322-0.004-2.391,1.064-2.398,2.374c-0.005,1.317,1.062,2.401,2.379,2.397c1.316,0.01,2.393-1.061,2.396-2.379
			c0.006-0.271-0.062-0.573-0.146-0.842C48.661,101.27,47.756,100.633,46.769,100.637z"/>
	</g>
</g>
</svg>
